<svg
  xmlns="http://www.w3.org/2000/svg"
  width="896"
  height="288"
  viewBox="0 0 896 288"
  fill="none"
>
  <style>
    * {
      transform-origin: center;
      transform-box: fill-box;
    }

    .animate-ping {
      animation: ping 1s cubic-bezier(0, 0, 0.2, 1) infinite;
    }

    .animate-fade-in {
      animation: fade-in 0.64s cubic-bezier(0, 0, 0.2, 1) forwards;
    }

    .animate-fade-in-bottom {
      animation: fade-in-bottom 0.64s cubic-bezier(0, 0, 0.2, 1) forwards;
    }

    .animate-fade-in-right {
      animation: fade-in-right 0.64s cubic-bezier(0, 0, 0.2, 1) forwards;
    }

    .title {
      opacity: 0;
      animation-delay: 0.4s;
    }

    .description {
      opacity: 0;
      animation-delay: 0.7s;
    }

    .additional {
      opacity: 0;
      animation-delay: 1s;
    }

    .additional__indicator {
      opacity: 0;
      animation-delay: 1.6s;
    }

    @keyframes ping {
      75%,
      100% {
        transform: scale(2);
        opacity: 0;
      }
    }

    @keyframes fade-in {
      from {
        opacity: 0;
      }
      to {
        opacity: 1;
      }
    }

    @keyframes fade-in-bottom {
      from {
        opacity: 0;
        transform: translate3d(0, -20px, 0);
      }
      to {
        opacity: 1;
        transform: translate3d(0, 0, 0);
      }
    }

    @keyframes fade-in-right {
      from {
        opacity: 0;
        transform: translate3d(-20px, 0, 0);
      }
      to {
        opacity: 1;
        transform: translate3d(0, 0, 0);
      }
    }
  </style>
  <g clip-path="url(#clip0_1_2)">
    <!-- #region background  -->
    <rect width="896" height="288" fill="url(#paint0_linear_1_2)" />
    <mask
      id="mask0_1_2"
      style="mask-type: alpha"
      maskUnits="userSpaceOnUse"
      x="0"
      y="0"
      width="896"
      height="288"
    >
      <rect width="896" height="288" fill="url(#paint1_linear_1_2)" />
    </mask>
    <g mask="url(#mask0_1_2)">
      <path
        d="M32.5001 0L32.5001 288M64.5001 0L64.5001 288M96.5001 0L96.5001 288M128.5 0L128.5 288M160.5 0L160.5 288M192.5 0L192.5 288M224.5 0L224.5 288M256.5 0V288M288.5 0V288M320.5 0V288M352.5 0V288M384.5 0V288M416.5 0V288M448.5 0V288M480.5 0V288M512.5 0V288M544.5 0V288M576.5 0V288M608.5 0V288M640.5 0V288M672.5 0V288M704.5 0V288M736.5 0V288M768.5 0V288M800.5 0V288M832.5 0V288M864.5 0V288M0 31.5H896M0 63.5H896M0 95.5H896M0 127.5H896M0 159.5H896M0 191.5H896M0 223.5H896M0 255.5H896"
        stroke="black"
        stroke-opacity="0.07"
        stroke-dasharray="5 5"
      />
    </g>
    <!-- #endregion -->

    <!-- #region title -->
    <g class="animate-fade-in-bottom title">
      <path
        d="M618.178 135.089C615.362 135.089 612.887 134.641 610.754 133.745C608.621 132.806 606.914 131.526 605.634 129.905C604.354 128.283 603.586 126.406 603.33 124.273H611.586C611.842 125.51 612.525 126.577 613.634 127.473C614.786 128.326 616.258 128.753 618.05 128.753C619.842 128.753 621.143 128.39 621.954 127.665C622.807 126.939 623.234 126.107 623.234 125.169C623.234 123.803 622.637 122.886 621.442 122.417C620.247 121.905 618.583 121.414 616.45 120.945C615.085 120.646 613.698 120.283 612.29 119.857C610.882 119.43 609.581 118.897 608.386 118.257C607.234 117.574 606.295 116.721 605.57 115.697C604.845 114.63 604.482 113.329 604.482 111.793C604.482 108.977 605.591 106.609 607.81 104.689C610.071 102.769 613.229 101.809 617.282 101.809C621.037 101.809 624.023 102.683 626.242 104.433C628.503 106.182 629.847 108.593 630.274 111.665H622.53C622.061 109.318 620.29 108.145 617.218 108.145C615.682 108.145 614.487 108.443 613.634 109.041C612.823 109.638 612.418 110.385 612.418 111.281C612.418 112.219 613.037 112.966 614.274 113.521C615.511 114.075 617.154 114.587 619.202 115.057C621.421 115.569 623.447 116.145 625.282 116.785C627.159 117.382 628.653 118.299 629.762 119.537C630.871 120.731 631.426 122.459 631.426 124.721C631.469 126.683 630.957 128.454 629.89 130.033C628.823 131.611 627.287 132.849 625.282 133.745C623.277 134.641 620.909 135.089 618.178 135.089Z"
        fill="#FF5935"
      />
      <path
        d="M578.024 135.088C574.056 135.088 570.984 133.851 568.808 131.376C566.675 128.902 565.608 125.275 565.608 120.496V102.576H573.736V119.728C573.736 122.459 574.291 124.55 575.4 126C576.51 127.451 578.259 128.176 580.648 128.176C582.91 128.176 584.766 127.366 586.216 125.744C587.71 124.123 588.456 121.862 588.456 118.96V102.576H596.648V134.32H589.416L588.776 128.944C587.795 130.822 586.366 132.315 584.488 133.424C582.654 134.534 580.499 135.088 578.024 135.088Z"
        fill="#FF5935"
      />
      <path
        d="M543.294 135.089C540.094 135.089 537.257 134.406 534.782 133.041C532.308 131.675 530.366 129.755 528.958 127.281C527.55 124.806 526.846 121.947 526.846 118.705C526.846 115.419 527.529 112.497 528.894 109.937C530.302 107.377 532.222 105.393 534.654 103.985C537.129 102.534 540.03 101.809 543.358 101.809C546.473 101.809 549.225 102.491 551.614 103.857C554.004 105.222 555.86 107.099 557.182 109.489C558.548 111.835 559.23 114.459 559.23 117.361C559.23 117.83 559.209 118.321 559.166 118.833C559.166 119.345 559.145 119.878 559.102 120.433H534.974C535.145 122.907 535.998 124.849 537.534 126.257C539.113 127.665 541.012 128.369 543.23 128.369C544.894 128.369 546.281 128.006 547.39 127.281C548.542 126.513 549.396 125.531 549.95 124.337H558.27C557.673 126.342 556.67 128.177 555.262 129.841C553.897 131.462 552.19 132.742 550.142 133.681C548.137 134.619 545.854 135.089 543.294 135.089ZM543.358 108.465C541.353 108.465 539.582 109.041 538.046 110.193C536.51 111.302 535.529 113.009 535.102 115.313H550.91C550.782 113.222 550.014 111.558 548.606 110.321C547.198 109.083 545.449 108.465 543.358 108.465Z"
        fill="#FF5935"
      />
      <path
        d="M488.933 134.32V88.2402H497.125V107.44C498.192 105.691 499.621 104.326 501.413 103.344C503.248 102.32 505.338 101.808 507.685 101.808C511.61 101.808 514.64 103.046 516.773 105.52C518.949 107.995 520.037 111.622 520.037 116.4V134.32H511.909V117.168C511.909 114.438 511.354 112.347 510.245 110.896C509.178 109.446 507.472 108.72 505.125 108.72C502.821 108.72 500.901 109.531 499.365 111.152C497.872 112.774 497.125 115.035 497.125 117.936V134.32H488.933Z"
        fill="#FF5935"
      />
      <path
        d="M476.139 134.32C472.811 134.32 470.145 133.51 468.139 131.888C466.134 130.267 465.131 127.387 465.131 123.248V109.424H459.691V102.576H465.131L466.091 94.0645H473.323V102.576H481.899V109.424H473.323V123.312C473.323 124.848 473.643 125.915 474.283 126.512C474.966 127.067 476.118 127.344 477.739 127.344H481.707V134.32H476.139Z"
        fill="#FF5935"
      />
      <path
        d="M436.439 135.089C433.709 135.089 431.469 134.662 429.719 133.809C427.97 132.913 426.669 131.739 425.815 130.289C424.962 128.838 424.535 127.238 424.535 125.489C424.535 122.545 425.687 120.155 427.991 118.321C430.295 116.486 433.751 115.569 438.359 115.569H446.423V114.801C446.423 112.625 445.805 111.025 444.567 110.001C443.33 108.977 441.794 108.465 439.959 108.465C438.295 108.465 436.845 108.87 435.607 109.681C434.37 110.449 433.602 111.601 433.303 113.137H425.303C425.517 110.833 426.285 108.827 427.607 107.121C428.973 105.414 430.722 104.113 432.855 103.217C434.989 102.278 437.378 101.809 440.023 101.809C444.546 101.809 448.109 102.939 450.711 105.201C453.314 107.462 454.615 110.662 454.615 114.801V134.321H447.639L446.871 129.201C445.933 130.907 444.61 132.315 442.903 133.425C441.239 134.534 439.085 135.089 436.439 135.089ZM438.295 128.689C440.642 128.689 442.455 127.921 443.735 126.385C445.058 124.849 445.89 122.95 446.231 120.689H439.255C437.079 120.689 435.522 121.094 434.583 121.905C433.645 122.673 433.175 123.633 433.175 124.785C433.175 126.022 433.645 126.982 434.583 127.665C435.522 128.347 436.759 128.689 438.295 128.689Z"
        fill="#FF5935"
      />
      <path
        d="M369.188 134.32V89.5195H378.916L393.188 117.936L407.268 89.5195H416.996V134.32H408.804V103.408L396.324 127.92H389.86L377.38 103.408V134.32H369.188Z"
        fill="#FF5935"
      />
      <path
        d="M293.808 134.321V102.577H301.04L301.744 106.865C302.768 105.329 304.112 104.113 305.776 103.217C307.483 102.278 309.445 101.809 311.664 101.809C316.571 101.809 320.048 103.707 322.096 107.505C323.248 105.755 324.784 104.369 326.704 103.345C328.667 102.321 330.8 101.809 333.104 101.809C337.243 101.809 340.421 103.046 342.64 105.521C344.859 107.995 345.968 111.622 345.968 116.401V134.321H337.776V117.169C337.776 114.438 337.243 112.347 336.176 110.897C335.152 109.446 333.552 108.721 331.376 108.721C329.157 108.721 327.365 109.531 326 111.153C324.677 112.774 324.016 115.035 324.016 117.937V134.321H315.824V117.169C315.824 114.438 315.291 112.347 314.224 110.897C313.157 109.446 311.515 108.721 309.296 108.721C307.12 108.721 305.349 109.531 303.984 111.153C302.661 112.774 302 115.035 302 117.937V134.321H293.808Z"
        fill="white"
      />
      <path
        d="M280.787 99.376L280.019 86H287.187L286.355 99.376H280.787Z"
        fill="white"
      />
      <path d="M265 134.32V89.5195H273.192V134.32H265Z" fill="white" />
    </g>
    <!-- #endregion -->

    <!-- #region description -->
    <g class="animate-fade-in-bottom description">
      <path
        d="M590.55 178V168.08H592.83L593.07 169.94C593.43 169.3 593.916 168.793 594.53 168.42C595.156 168.033 595.89 167.84 596.73 167.84V170.54H596.01C595.45 170.54 594.95 170.627 594.51 170.8C594.07 170.973 593.723 171.273 593.47 171.7C593.23 172.127 593.11 172.72 593.11 173.48V178H590.55Z"
        fill="#64748B"
      />
      <path
        d="M583.417 178.24C582.417 178.24 581.53 178.027 580.757 177.6C579.984 177.173 579.377 176.573 578.937 175.8C578.497 175.027 578.277 174.133 578.277 173.12C578.277 172.093 578.49 171.18 578.917 170.38C579.357 169.58 579.957 168.96 580.717 168.52C581.49 168.067 582.397 167.84 583.437 167.84C584.41 167.84 585.27 168.053 586.017 168.48C586.764 168.907 587.344 169.493 587.757 170.24C588.184 170.973 588.397 171.793 588.397 172.7C588.397 172.847 588.39 173 588.377 173.16C588.377 173.32 588.37 173.487 588.357 173.66H580.817C580.87 174.433 581.137 175.04 581.617 175.48C582.11 175.92 582.704 176.14 583.397 176.14C583.917 176.14 584.35 176.027 584.697 175.8C585.057 175.56 585.324 175.253 585.497 174.88H588.097C587.91 175.507 587.597 176.08 587.157 176.6C586.73 177.107 586.197 177.507 585.557 177.8C584.93 178.093 584.217 178.24 583.417 178.24ZM583.437 169.92C582.81 169.92 582.257 170.1 581.777 170.46C581.297 170.807 580.99 171.34 580.857 172.06H585.797C585.757 171.407 585.517 170.887 585.077 170.5C584.637 170.113 584.09 169.92 583.437 169.92Z"
        fill="#64748B"
      />
      <path
        d="M571.464 178.24C570.464 178.24 569.577 178.027 568.804 177.6C568.03 177.173 567.424 176.573 566.984 175.8C566.544 175.027 566.324 174.133 566.324 173.12C566.324 172.093 566.537 171.18 566.964 170.38C567.404 169.58 568.004 168.96 568.764 168.52C569.537 168.067 570.444 167.84 571.484 167.84C572.457 167.84 573.317 168.053 574.064 168.48C574.81 168.907 575.39 169.493 575.804 170.24C576.23 170.973 576.444 171.793 576.444 172.7C576.444 172.847 576.437 173 576.424 173.16C576.424 173.32 576.417 173.487 576.404 173.66H568.864C568.917 174.433 569.184 175.04 569.664 175.48C570.157 175.92 570.75 176.14 571.444 176.14C571.964 176.14 572.397 176.027 572.744 175.8C573.104 175.56 573.37 175.253 573.544 174.88H576.144C575.957 175.507 575.644 176.08 575.204 176.6C574.777 177.107 574.244 177.507 573.604 177.8C572.977 178.093 572.264 178.24 571.464 178.24ZM571.484 169.92C570.857 169.92 570.304 170.1 569.824 170.46C569.344 170.807 569.037 171.34 568.904 172.06H573.844C573.804 171.407 573.564 170.887 573.124 170.5C572.684 170.113 572.137 169.92 571.484 169.92Z"
        fill="#64748B"
      />
      <path
        d="M554.476 178V168.08H556.736L556.936 169.76C557.242 169.173 557.682 168.707 558.256 168.36C558.842 168.013 559.529 167.84 560.316 167.84C561.542 167.84 562.496 168.227 563.176 169C563.856 169.773 564.196 170.907 564.196 172.4V178H561.636V172.64C561.636 171.787 561.462 171.133 561.116 170.68C560.769 170.227 560.229 170 559.496 170C558.776 170 558.182 170.253 557.716 170.76C557.262 171.267 557.036 171.973 557.036 172.88V178H554.476Z"
        fill="#64748B"
      />
      <path
        d="M550.524 166.54C550.057 166.54 549.67 166.4 549.364 166.12C549.07 165.84 548.924 165.486 548.924 165.06C548.924 164.633 549.07 164.286 549.364 164.02C549.67 163.74 550.057 163.6 550.524 163.6C550.99 163.6 551.37 163.74 551.664 164.02C551.97 164.286 552.124 164.633 552.124 165.06C552.124 165.486 551.97 165.84 551.664 166.12C551.37 166.4 550.99 166.54 550.524 166.54ZM549.244 178V168.08H551.804V178H549.244Z"
        fill="#64748B"
      />
      <path
        d="M541.957 175.04C541.477 175.04 541.03 174.987 540.617 174.88L539.877 175.62C540.103 175.74 540.41 175.84 540.797 175.92C541.183 176 541.81 176.08 542.677 176.16C543.997 176.28 544.957 176.593 545.557 177.1C546.157 177.607 546.457 178.307 546.457 179.2C546.457 179.787 546.297 180.34 545.977 180.86C545.657 181.393 545.163 181.82 544.497 182.14C543.83 182.473 542.977 182.64 541.937 182.64C540.523 182.64 539.383 182.373 538.517 181.84C537.65 181.32 537.217 180.533 537.217 179.48C537.217 178.587 537.65 177.813 538.517 177.16C538.25 177.04 538.017 176.913 537.817 176.78C537.63 176.647 537.463 176.507 537.317 176.36V175.9L539.057 174.06C538.283 173.38 537.897 172.507 537.897 171.44C537.897 170.773 538.057 170.167 538.377 169.62C538.71 169.073 539.177 168.64 539.777 168.32C540.377 168 541.103 167.84 541.957 167.84C542.517 167.84 543.037 167.92 543.517 168.08H547.277V169.64L545.577 169.76C545.843 170.267 545.977 170.827 545.977 171.44C545.977 172.107 545.817 172.713 545.497 173.26C545.177 173.807 544.71 174.24 544.097 174.56C543.497 174.88 542.783 175.04 541.957 175.04ZM541.957 173.08C542.477 173.08 542.903 172.94 543.237 172.66C543.583 172.38 543.757 171.98 543.757 171.46C543.757 170.94 543.583 170.54 543.237 170.26C542.903 169.98 542.477 169.84 541.957 169.84C541.41 169.84 540.97 169.98 540.637 170.26C540.303 170.54 540.137 170.94 540.137 171.46C540.137 171.98 540.303 172.38 540.637 172.66C540.97 172.94 541.41 173.08 541.957 173.08ZM539.557 179.22C539.557 179.713 539.783 180.08 540.237 180.32C540.703 180.573 541.27 180.7 541.937 180.7C542.577 180.7 543.097 180.567 543.497 180.3C543.897 180.047 544.097 179.7 544.097 179.26C544.097 178.9 543.963 178.6 543.697 178.36C543.443 178.12 542.93 177.973 542.157 177.92C541.61 177.88 541.103 177.82 540.637 177.74C540.25 177.953 539.97 178.187 539.797 178.44C539.637 178.693 539.557 178.953 539.557 179.22Z"
        fill="#64748B"
      />
      <path
        d="M525.589 178V168.08H527.849L528.049 169.76C528.356 169.173 528.796 168.707 529.369 168.36C529.956 168.013 530.642 167.84 531.429 167.84C532.656 167.84 533.609 168.227 534.289 169C534.969 169.773 535.309 170.907 535.309 172.4V178H532.749V172.64C532.749 171.787 532.576 171.133 532.229 170.68C531.882 170.227 531.342 170 530.609 170C529.889 170 529.296 170.253 528.829 170.76C528.376 171.267 528.149 171.973 528.149 172.88V178H525.589Z"
        fill="#64748B"
      />
      <path
        d="M514.086 178V164H523.226V166.06H516.646V169.9H522.626V171.9H516.646V175.94H523.226V178H514.086Z"
        fill="#64748B"
      />
      <path
        d="M502.128 178.24C501.128 178.24 500.241 178.027 499.468 177.6C498.694 177.173 498.088 176.573 497.648 175.8C497.208 175.027 496.988 174.133 496.988 173.12C496.988 172.093 497.201 171.18 497.628 170.38C498.068 169.58 498.668 168.96 499.428 168.52C500.201 168.067 501.108 167.84 502.148 167.84C503.121 167.84 503.981 168.053 504.728 168.48C505.474 168.907 506.054 169.493 506.468 170.24C506.894 170.973 507.108 171.793 507.108 172.7C507.108 172.847 507.101 173 507.088 173.16C507.088 173.32 507.081 173.487 507.068 173.66H499.528C499.581 174.433 499.848 175.04 500.328 175.48C500.821 175.92 501.414 176.14 502.108 176.14C502.628 176.14 503.061 176.027 503.408 175.8C503.768 175.56 504.034 175.253 504.208 174.88H506.808C506.621 175.507 506.308 176.08 505.868 176.6C505.441 177.107 504.908 177.507 504.268 177.8C503.641 178.093 502.928 178.24 502.128 178.24ZM502.148 169.92C501.521 169.92 500.968 170.1 500.488 170.46C500.008 170.807 499.701 171.34 499.568 172.06H504.508C504.468 171.407 504.228 170.887 503.788 170.5C503.348 170.113 502.801 169.92 502.148 169.92Z"
        fill="#64748B"
      />
      <path
        d="M489.554 178V168.08H491.834L492.074 169.94C492.434 169.3 492.92 168.793 493.534 168.42C494.16 168.033 494.894 167.84 495.734 167.84V170.54H495.014C494.454 170.54 493.954 170.627 493.514 170.8C493.074 170.973 492.727 171.273 492.474 171.7C492.234 172.127 492.114 172.72 492.114 173.48V178H489.554Z"
        fill="#64748B"
      />
      <path
        d="M481.431 178.24C480.578 178.24 479.878 178.107 479.331 177.84C478.784 177.56 478.378 177.193 478.111 176.74C477.844 176.287 477.711 175.787 477.711 175.24C477.711 174.32 478.071 173.573 478.791 173C479.511 172.427 480.591 172.14 482.031 172.14H484.551V171.9C484.551 171.22 484.358 170.72 483.971 170.4C483.584 170.08 483.104 169.92 482.531 169.92C482.011 169.92 481.558 170.047 481.171 170.3C480.784 170.54 480.544 170.9 480.451 171.38H477.951C478.018 170.66 478.258 170.033 478.671 169.5C479.098 168.967 479.644 168.56 480.311 168.28C480.978 167.987 481.724 167.84 482.551 167.84C483.964 167.84 485.078 168.193 485.891 168.9C486.704 169.607 487.111 170.607 487.111 171.9V178H484.931L484.691 176.4C484.398 176.933 483.984 177.373 483.451 177.72C482.931 178.067 482.258 178.24 481.431 178.24ZM482.011 176.24C482.744 176.24 483.311 176 483.711 175.52C484.124 175.04 484.384 174.447 484.491 173.74H482.311C481.631 173.74 481.144 173.867 480.851 174.12C480.558 174.36 480.411 174.66 480.411 175.02C480.411 175.407 480.558 175.707 480.851 175.92C481.144 176.133 481.531 176.24 482.011 176.24Z"
        fill="#64748B"
      />
      <path
        d="M464.423 178L461.523 168.08H464.063L465.783 175.22L467.783 168.08H470.623L472.623 175.22L474.363 168.08H476.903L473.983 178H471.323L469.203 170.58L467.083 178H464.423Z"
        fill="#64748B"
      />
      <path
        d="M458.485 178C457.445 178 456.612 177.747 455.985 177.24C455.359 176.733 455.045 175.833 455.045 174.54V170.22H453.345V168.08H455.045L455.345 165.42H457.605V168.08H460.285V170.22H457.605V174.56C457.605 175.04 457.705 175.373 457.905 175.56C458.119 175.733 458.479 175.82 458.985 175.82H460.225V178H458.485Z"
        fill="#64748B"
      />
      <path
        d="M447.338 178V170.22H445.978V168.08H447.338V166.92C447.338 165.72 447.638 164.866 448.238 164.36C448.851 163.853 449.678 163.6 450.718 163.6H451.818V165.78H451.118C450.678 165.78 450.365 165.866 450.178 166.04C449.991 166.213 449.898 166.506 449.898 166.92V168.08H452.038V170.22H449.898V178H447.338Z"
        fill="#64748B"
      />
      <path
        d="M439.509 178.24C438.549 178.24 437.683 178.02 436.909 177.58C436.149 177.14 435.543 176.533 435.089 175.76C434.649 174.973 434.429 174.067 434.429 173.04C434.429 172.013 434.656 171.113 435.109 170.34C435.563 169.553 436.169 168.94 436.929 168.5C437.703 168.06 438.569 167.84 439.529 167.84C440.476 167.84 441.329 168.06 442.089 168.5C442.863 168.94 443.469 169.553 443.909 170.34C444.363 171.113 444.589 172.013 444.589 173.04C444.589 174.067 444.363 174.973 443.909 175.76C443.469 176.533 442.863 177.14 442.089 177.58C441.316 178.02 440.456 178.24 439.509 178.24ZM439.509 176.02C440.176 176.02 440.756 175.773 441.249 175.28C441.743 174.773 441.989 174.027 441.989 173.04C441.989 172.053 441.743 171.313 441.249 170.82C440.756 170.313 440.183 170.06 439.529 170.06C438.849 170.06 438.263 170.313 437.769 170.82C437.289 171.313 437.049 172.053 437.049 173.04C437.049 174.027 437.289 174.773 437.769 175.28C438.263 175.773 438.843 176.02 439.509 176.02Z"
        fill="#64748B"
      />
      <path
        d="M427.655 178.24C426.629 178.24 425.722 178.066 424.935 177.72C424.149 177.36 423.529 176.853 423.075 176.2C422.622 175.533 422.389 174.726 422.375 173.78H425.075C425.102 174.433 425.335 174.986 425.775 175.44C426.229 175.88 426.849 176.1 427.635 176.1C428.315 176.1 428.855 175.94 429.255 175.62C429.655 175.286 429.855 174.846 429.855 174.3C429.855 173.726 429.675 173.28 429.315 172.96C428.969 172.64 428.502 172.38 427.915 172.18C427.329 171.98 426.702 171.766 426.035 171.54C424.955 171.166 424.129 170.686 423.555 170.1C422.995 169.513 422.715 168.733 422.715 167.76C422.702 166.933 422.895 166.226 423.295 165.64C423.709 165.04 424.269 164.58 424.975 164.26C425.682 163.926 426.495 163.76 427.415 163.76C428.349 163.76 429.169 163.926 429.875 164.26C430.595 164.593 431.155 165.06 431.555 165.66C431.969 166.26 432.189 166.973 432.215 167.8H429.475C429.462 167.306 429.269 166.873 428.895 166.5C428.535 166.113 428.029 165.92 427.375 165.92C426.815 165.906 426.342 166.046 425.955 166.34C425.582 166.62 425.395 167.033 425.395 167.58C425.395 168.046 425.542 168.42 425.835 168.7C426.129 168.966 426.529 169.193 427.035 169.38C427.542 169.566 428.122 169.766 428.775 169.98C429.469 170.22 430.102 170.5 430.675 170.82C431.249 171.14 431.709 171.566 432.055 172.1C432.402 172.62 432.575 173.293 432.575 174.12C432.575 174.853 432.389 175.533 432.015 176.16C431.642 176.786 431.089 177.293 430.355 177.68C429.622 178.053 428.722 178.24 427.655 178.24Z"
        fill="#64748B"
      />
      <path
        d="M407.283 173.279V171.139H415.663V173.279H407.283Z"
        fill="#64748B"
      />
      <path
        d="M394.808 178V168.08H397.088L397.328 169.94C397.688 169.3 398.174 168.793 398.788 168.42C399.414 168.033 400.148 167.84 400.988 167.84V170.54H400.268C399.708 170.54 399.208 170.627 398.768 170.8C398.328 170.973 397.981 171.273 397.728 171.7C397.488 172.127 397.368 172.72 397.368 173.48V178H394.808Z"
        fill="#64748B"
      />
      <path
        d="M387.675 178.24C386.675 178.24 385.788 178.027 385.015 177.6C384.241 177.173 383.635 176.573 383.195 175.8C382.755 175.027 382.535 174.133 382.535 173.12C382.535 172.093 382.748 171.18 383.175 170.38C383.615 169.58 384.215 168.96 384.975 168.52C385.748 168.067 386.655 167.84 387.695 167.84C388.668 167.84 389.528 168.053 390.275 168.48C391.021 168.907 391.601 169.493 392.015 170.24C392.441 170.973 392.655 171.793 392.655 172.7C392.655 172.847 392.648 173 392.635 173.16C392.635 173.32 392.628 173.487 392.615 173.66H385.075C385.128 174.433 385.395 175.04 385.875 175.48C386.368 175.92 386.961 176.14 387.655 176.14C388.175 176.14 388.608 176.027 388.955 175.8C389.315 175.56 389.581 175.253 389.755 174.88H392.355C392.168 175.507 391.855 176.08 391.415 176.6C390.988 177.107 390.455 177.507 389.815 177.8C389.188 178.093 388.475 178.24 387.675 178.24ZM387.695 169.92C387.068 169.92 386.515 170.1 386.035 170.46C385.555 170.807 385.248 171.34 385.115 172.06H390.055C390.015 171.407 389.775 170.887 389.335 170.5C388.895 170.113 388.348 169.92 387.695 169.92Z"
        fill="#64748B"
      />
      <path
        d="M375.722 178.24C374.709 178.24 373.816 178.02 373.042 177.58C372.269 177.14 371.656 176.527 371.202 175.74C370.762 174.953 370.542 174.053 370.542 173.04C370.542 172.027 370.762 171.127 371.202 170.34C371.656 169.553 372.269 168.94 373.042 168.5C373.816 168.06 374.709 167.84 375.722 167.84C376.989 167.84 378.056 168.173 378.922 168.84C379.789 169.493 380.342 170.4 380.582 171.56H377.882C377.749 171.08 377.482 170.707 377.082 170.44C376.696 170.16 376.236 170.02 375.702 170.02C374.996 170.02 374.396 170.287 373.902 170.82C373.409 171.353 373.162 172.093 373.162 173.04C373.162 173.987 373.409 174.727 373.902 175.26C374.396 175.793 374.996 176.06 375.702 176.06C376.236 176.06 376.696 175.927 377.082 175.66C377.482 175.393 377.749 175.013 377.882 174.52H380.582C380.342 175.64 379.789 176.54 378.922 177.22C378.056 177.9 376.989 178.24 375.722 178.24Z"
        fill="#64748B"
      />
      <path
        d="M358.694 178V168.08H360.954L361.154 169.76C361.461 169.173 361.901 168.707 362.474 168.36C363.061 168.013 363.748 167.84 364.534 167.84C365.761 167.84 366.714 168.227 367.394 169C368.074 169.773 368.414 170.907 368.414 172.4V178H365.854V172.64C365.854 171.787 365.681 171.133 365.334 170.68C364.988 170.227 364.448 170 363.714 170C362.994 170 362.401 170.253 361.934 170.76C361.481 171.267 361.254 171.973 361.254 172.88V178H358.694Z"
        fill="#64748B"
      />
      <path
        d="M350.572 178.24C349.718 178.24 349.018 178.107 348.472 177.84C347.925 177.56 347.518 177.193 347.252 176.74C346.985 176.287 346.852 175.787 346.852 175.24C346.852 174.32 347.212 173.573 347.932 173C348.652 172.427 349.732 172.14 351.172 172.14H353.692V171.9C353.692 171.22 353.498 170.72 353.112 170.4C352.725 170.08 352.245 169.92 351.672 169.92C351.152 169.92 350.698 170.047 350.312 170.3C349.925 170.54 349.685 170.9 349.592 171.38H347.092C347.158 170.66 347.398 170.033 347.812 169.5C348.238 168.967 348.785 168.56 349.452 168.28C350.118 167.987 350.865 167.84 351.692 167.84C353.105 167.84 354.218 168.193 355.032 168.9C355.845 169.607 356.252 170.607 356.252 171.9V178H354.072L353.832 176.4C353.538 176.933 353.125 177.373 352.592 177.72C352.072 178.067 351.398 178.24 350.572 178.24ZM351.152 176.24C351.885 176.24 352.452 176 352.852 175.52C353.265 175.04 353.525 174.447 353.632 173.74H351.452C350.772 173.74 350.285 173.867 349.992 174.12C349.698 174.36 349.552 174.66 349.552 175.02C349.552 175.407 349.698 175.707 349.992 175.92C350.285 176.133 350.672 176.24 351.152 176.24Z"
        fill="#64748B"
      />
      <path d="M341.976 178V163.6H344.536V178H341.976Z" fill="#64748B" />
      <path
        d="M334.843 178.24C333.843 178.24 332.956 178.027 332.183 177.6C331.409 177.173 330.803 176.573 330.363 175.8C329.923 175.027 329.703 174.133 329.703 173.12C329.703 172.093 329.916 171.18 330.343 170.38C330.783 169.58 331.383 168.96 332.143 168.52C332.916 168.067 333.823 167.84 334.863 167.84C335.836 167.84 336.696 168.053 337.443 168.48C338.189 168.907 338.769 169.493 339.183 170.24C339.609 170.973 339.823 171.793 339.823 172.7C339.823 172.847 339.816 173 339.803 173.16C339.803 173.32 339.796 173.487 339.783 173.66H332.243C332.296 174.433 332.563 175.04 333.043 175.48C333.536 175.92 334.129 176.14 334.823 176.14C335.343 176.14 335.776 176.027 336.123 175.8C336.483 175.56 336.749 175.253 336.923 174.88H339.523C339.336 175.507 339.023 176.08 338.583 176.6C338.156 177.107 337.623 177.507 336.983 177.8C336.356 178.093 335.643 178.24 334.843 178.24ZM334.863 169.92C334.236 169.92 333.683 170.1 333.203 170.46C332.723 170.807 332.416 171.34 332.283 172.06H337.223C337.183 171.407 336.943 170.887 336.503 170.5C336.063 170.113 335.516 169.92 334.863 169.92Z"
        fill="#64748B"
      />
      <path
        d="M322.89 178.24C321.89 178.24 321.003 178.027 320.23 177.6C319.456 177.173 318.85 176.573 318.41 175.8C317.97 175.027 317.75 174.133 317.75 173.12C317.75 172.093 317.963 171.18 318.39 170.38C318.83 169.58 319.43 168.96 320.19 168.52C320.963 168.067 321.87 167.84 322.91 167.84C323.883 167.84 324.743 168.053 325.49 168.48C326.236 168.907 326.816 169.493 327.23 170.24C327.656 170.973 327.87 171.793 327.87 172.7C327.87 172.847 327.863 173 327.85 173.16C327.85 173.32 327.843 173.487 327.83 173.66H320.29C320.343 174.433 320.61 175.04 321.09 175.48C321.583 175.92 322.176 176.14 322.87 176.14C323.39 176.14 323.823 176.027 324.17 175.8C324.53 175.56 324.796 175.253 324.97 174.88H327.57C327.383 175.507 327.07 176.08 326.63 176.6C326.203 177.107 325.67 177.507 325.03 177.8C324.403 178.093 323.69 178.24 322.89 178.24ZM322.91 169.92C322.283 169.92 321.73 170.1 321.25 170.46C320.77 170.807 320.463 171.34 320.33 172.06H325.27C325.23 171.407 324.99 170.887 324.55 170.5C324.11 170.113 323.563 169.92 322.91 169.92Z"
        fill="#64748B"
      />
      <path
        d="M310.315 178V168.08H312.595L312.835 169.94C313.195 169.3 313.682 168.793 314.295 168.42C314.922 168.033 315.655 167.84 316.495 167.84V170.54H315.775C315.215 170.54 314.715 170.627 314.275 170.8C313.835 170.973 313.489 171.273 313.235 171.7C312.995 172.127 312.875 172.72 312.875 173.48V178H310.315Z"
        fill="#64748B"
      />
      <path
        d="M299.36 178V164H308.4V166.06H301.92V169.98H307.16V172H301.92V178H299.36Z"
        fill="#64748B"
      />
    </g>
    <!-- #endregion -->

    <!-- #region additional  -->
    <g class="animate-fade-in-right additional">
      <g class="additional__indicator animate-fade-in">
        <circle cx="373" cy="215" r="5" fill="#FF5935" class="animate-ping" />
        <circle cx="373" cy="215" r="3" fill="#FF5935" />
      </g>
      <g class="additional__text">
        <path
          d="M386.132 219L389.156 210.06H391.628L394.652 219H392.624L392.024 217.176H388.748L388.148 219H386.132ZM389.264 215.556H391.508L390.14 211.332H390.644L389.264 215.556ZM397.501 219L394.441 210.06H396.481L398.785 217.236H398.377L400.681 210.06H402.721L399.661 219H397.501ZM402.503 219L405.527 210.06H407.999L411.023 219H408.995L408.395 217.176H405.119L404.519 219H402.503ZM405.635 215.556H407.879L406.511 211.332H407.015L405.635 215.556ZM411.952 219V210.06H413.812V219H411.952ZM415.397 219V210.06H417.257V217.38H421.037V219H415.397ZM421.3 219L424.324 210.06H426.796L429.82 219H427.792L427.192 217.176H423.916L423.316 219H421.3ZM424.432 215.556H426.676L425.308 211.332H425.812L424.432 215.556ZM430.749 219V210.06H434.529C435.145 210.06 435.673 210.164 436.113 210.372C436.553 210.58 436.889 210.88 437.121 211.272C437.353 211.656 437.469 212.124 437.469 212.676C437.469 213.068 437.361 213.444 437.145 213.804C436.929 214.156 436.573 214.452 436.077 214.692V213.78C436.549 213.964 436.913 214.184 437.169 214.44C437.425 214.696 437.601 214.976 437.697 215.28C437.793 215.576 437.841 215.888 437.841 216.216C437.841 217.096 437.549 217.78 436.965 218.268C436.381 218.756 435.569 219 434.529 219H430.749ZM432.609 217.38H434.745C435.121 217.38 435.421 217.272 435.645 217.056C435.869 216.84 435.981 216.56 435.981 216.216C435.981 215.864 435.869 215.58 435.645 215.364C435.421 215.148 435.121 215.04 434.745 215.04H432.609V217.38ZM432.609 213.42H434.661C434.949 213.42 435.177 213.34 435.345 213.18C435.521 213.012 435.609 212.792 435.609 212.52C435.609 212.248 435.521 212.032 435.345 211.872C435.177 211.704 434.949 211.62 434.661 211.62H432.609V213.42ZM439.034 219V210.06H440.894V217.38H444.674V219H439.034ZM445.597 219V210.06H451.609V211.68H447.457V213.708H451.369V215.328H447.457V217.38H451.609V219H445.597ZM454.819 219V210.06H460.939V211.68H456.679V213.948H460.339V215.568H456.679V219H454.819ZM466.221 219.144C465.549 219.144 464.925 219.028 464.349 218.796C463.773 218.564 463.269 218.24 462.837 217.824C462.413 217.4 462.081 216.908 461.841 216.348C461.601 215.788 461.481 215.18 461.481 214.524C461.481 213.868 461.597 213.26 461.829 212.7C462.069 212.14 462.401 211.652 462.825 211.236C463.257 210.82 463.761 210.496 464.337 210.264C464.913 210.032 465.541 209.916 466.221 209.916C466.901 209.916 467.529 210.032 468.105 210.264C468.681 210.496 469.181 210.82 469.605 211.236C470.037 211.652 470.369 212.14 470.601 212.7C470.841 213.26 470.961 213.868 470.961 214.524C470.961 215.18 470.841 215.788 470.601 216.348C470.361 216.908 470.025 217.4 469.593 217.824C469.169 218.24 468.669 218.564 468.093 218.796C467.517 219.028 466.893 219.144 466.221 219.144ZM466.221 217.464C466.629 217.464 467.005 217.392 467.349 217.248C467.701 217.104 468.009 216.904 468.273 216.648C468.537 216.384 468.741 216.072 468.885 215.712C469.029 215.352 469.101 214.956 469.101 214.524C469.101 214.092 469.029 213.7 468.885 213.348C468.741 212.988 468.537 212.676 468.273 212.412C468.009 212.148 467.701 211.948 467.349 211.812C467.005 211.668 466.629 211.596 466.221 211.596C465.813 211.596 465.433 211.668 465.081 211.812C464.737 211.948 464.433 212.148 464.169 212.412C463.905 212.676 463.701 212.988 463.557 213.348C463.413 213.7 463.341 214.092 463.341 214.524C463.341 214.956 463.413 215.352 463.557 215.712C463.701 216.072 463.905 216.384 464.169 216.648C464.433 216.904 464.737 217.104 465.081 217.248C465.433 217.392 465.813 217.464 466.221 217.464ZM472.28 219V210.06H475.7C476.316 210.06 476.86 210.168 477.332 210.384C477.812 210.6 478.188 210.92 478.46 211.344C478.732 211.768 478.868 212.292 478.868 212.916C478.868 213.524 478.728 214.044 478.448 214.476C478.168 214.9 477.792 215.22 477.32 215.436L479.36 219H477.272L475.064 215.052L476.264 215.76H474.14V219H472.28ZM474.14 214.14H475.712C475.976 214.14 476.204 214.088 476.396 213.984C476.588 213.88 476.736 213.736 476.84 213.552C476.952 213.368 477.008 213.156 477.008 212.916C477.008 212.668 476.952 212.452 476.84 212.268C476.736 212.084 476.588 211.94 476.396 211.836C476.204 211.732 475.976 211.68 475.712 211.68H474.14V214.14ZM482.44 219V210.06H484.3V213.924H487.78V210.06H489.64V219H487.78V215.544H484.3V219H482.44ZM491.229 219V210.06H493.09V219H491.229ZM494.675 219V210.06H498.095C498.711 210.06 499.255 210.168 499.727 210.384C500.207 210.6 500.583 210.92 500.855 211.344C501.127 211.768 501.263 212.292 501.263 212.916C501.263 213.524 501.123 214.044 500.843 214.476C500.563 214.9 500.187 215.22 499.715 215.436L501.755 219H499.667L497.459 215.052L498.659 215.76H496.535V219H494.675ZM496.535 214.14H498.107C498.371 214.14 498.599 214.088 498.791 213.984C498.983 213.88 499.131 213.736 499.235 213.552C499.347 213.368 499.403 213.156 499.403 212.916C499.403 212.668 499.347 212.452 499.235 212.268C499.131 212.084 498.983 211.94 498.791 211.836C498.599 211.732 498.371 211.68 498.107 211.68H496.535V214.14ZM502.679 219V210.06H508.691V211.68H504.539V213.708H508.451V215.328H504.539V217.38H508.691V219H502.679Z"
          fill="#FF5935"
        />
      </g>
    </g>
    <!-- #endregion -->
  </g>

  <!-- #region defs -->
  <defs>
    <linearGradient
      id="paint0_linear_1_2"
      x1="448"
      y1="0"
      x2="448"
      y2="288"
      gradientUnits="userSpaceOnUse"
    >
      <stop stop-color="#e2e8f0" />
      <stop offset="1" stop-color="#e2e8f0" stop-opacity="0" />
    </linearGradient>
    <linearGradient
      id="paint1_linear_1_2"
      x1="448"
      y1="0"
      x2="448"
      y2="288"
      gradientUnits="userSpaceOnUse"
    >
      <stop />
      <stop offset="1" stop-opacity="0" />
    </linearGradient>
    <clipPath id="clip0_1_2">
      <path
        d="M0 32C0 14.3269 14.3269 0 32 0H864C881.673 0 896 14.3269 896 32V288H0V32Z"
        fill="white"
      />
    </clipPath>
  </defs>
  <!-- #endregion -->
</svg>
